<svg width="200" height="200" viewBox="0 0 200 200" xmlns="http://www.w3.org/2000/svg">
  <rect width="200" height="200" fill="none"/>
  <g fill="none" stroke="#B8C1CC" stroke-width="2">
    <rect x="55" y="55" width="90" height="90" rx="8"/>
    <rect x="75" y="75" width="50" height="50" rx="4"/>
    <line x1="80" y1="55" x2="80" y2="42"/>
    <line x1="100" y1="55" x2="100" y2="42"/>
    <line x1="120" y1="55" x2="120" y2="42"/>
    <line x1="80" y1="145" x2="80" y2="158"/>
    <line x1="100" y1="145" x2="100" y2="158"/>
    <line x1="120" y1="145" x2="120" y2="158"/>
    <line x1="55" y1="80" x2="42" y2="80"/>
    <line x1="55" y1="100" x2="42" y2="100"/>
    <line x1="55" y1="120" x2="42" y2="120"/>
    <line x1="145" y1="80" x2="158" y2="80"/>
    <line x1="145" y1="100" x2="158" y2="100"/>
    <line x1="145" y1="120" x2="158" y2="120"/>
  </g>
  <text x="100" y="105" font-family="monospace" font-size="11" fill="#4A5663" text-anchor="middle">IMG</text>
</svg>
